<?xml version="1.0" standalone="no"?>
<!DOCTYPE svg PUBLIC "-//W3C//DTD SVG 20010904//EN"
 "http://www.w3.org/TR/2001/REC-SVG-20010904/DTD/svg10.dtd">
<svg version="1.0" xmlns="http://www.w3.org/2000/svg"
 width="1024.000000pt" height="1024.000000pt" viewBox="0 0 1024.000000 1024.000000"
 preserveAspectRatio="xMidYMid meet">
<metadata>
Created by potrace 1.14, written by Peter Selinger 2001-2017
</metadata>
<g transform="translate(0.000000,1024.000000) scale(0.100000,-0.100000)"
fill="#000000" stroke="none">
<path d="M3054 8730 c-48 -24 -74 -50 -104 -105 -12 -22 -64 -112 -115 -200
-168 -289 -237 -410 -257 -445 -11 -19 -54 -93 -96 -165 -41 -71 -84 -146 -95
-165 -11 -19 -87 -152 -170 -295 -82 -143 -158 -273 -167 -290 -10 -16 -61
-106 -115 -200 -280 -484 -346 -601 -354 -631 -10 -36 1 -109 23 -151 51 -99
188 -137 290 -80 55 31 71 55 328 507 25 43 301 522 369 640 27 47 54 92 60
100 5 8 15 27 22 43 6 15 15 27 19 27 4 0 8 4 8 9 0 5 47 90 104 188 138 238
294 509 319 556 23 42 24 41 62 -28 15 -27 31 -54 35 -60 4 -5 21 -35 38 -65
25 -47 70 -125 196 -340 65 -112 65 -95 1 -206 -50 -86 -119 -206 -187 -324
-112 -195 -274 -475 -378 -655 -70 -121 -230 -398 -355 -615 -125 -217 -236
-406 -246 -420 l-17 -25 -574 -1 c-564 -1 -574 -2 -615 -23 -86 -43 -130 -122
-120 -212 5 -41 29 -90 119 -246 62 -108 125 -216 139 -242 14 -25 75 -131
136 -236 61 -104 124 -213 139 -240 37 -64 222 -385 234 -405 30 -48 210 -364
210 -367 0 -3 8 -17 18 -31 11 -15 33 -52 49 -82 17 -30 77 -136 135 -235 57
-99 151 -261 208 -360 57 -99 123 -213 147 -252 24 -40 43 -75 43 -77 0 -3 26
-49 58 -103 65 -109 196 -334 234 -403 14 -25 46 -80 72 -123 25 -43 46 -82
46 -86 0 -21 89 -98 126 -109 32 -9 491 -12 2055 -12 1995 0 2013 0 2054 20
23 11 51 30 62 43 23 24 80 121 90 150 3 9 9 17 14 17 5 0 9 4 9 9 0 5 40 78
89 163 308 533 546 945 628 1088 53 91 104 179 113 195 9 17 111 192 225 390
115 198 216 373 224 388 9 16 21 36 26 45 10 17 261 450 298 515 10 18 82 141
159 275 77 134 144 259 150 279 21 76 8 110 -163 406 -89 155 -185 323 -214
372 -43 72 -595 1028 -666 1152 -122 213 -448 779 -469 813 -15 25 -132 227
-260 450 -128 223 -242 416 -254 429 -11 13 -39 32 -61 42 -38 18 -118 19
-2065 19 -2016 0 -2025 0 -2066 -20z m3666 -409 c0 -2 -71 -125 -157 -275 -86
-149 -167 -290 -181 -313 l-24 -43 -1238 0 -1237 0 -48 83 c-27 45 -59 102
-73 127 -14 25 -74 128 -133 230 -59 101 -106 187 -104 190 3 6 3195 7 3195 1z
m433 -313 c30 -51 64 -109 75 -128 11 -19 39 -69 62 -110 24 -41 105 -182 182
-313 76 -131 138 -240 138 -241 0 -2 50 -88 110 -191 61 -103 110 -189 110
-191 0 -2 11 -21 24 -42 26 -41 207 -354 242 -417 12 -22 70 -123 129 -225 60
-102 118 -203 131 -225 12 -22 46 -80 74 -130 29 -49 101 -173 160 -276 l107
-185 -367 0 -367 0 -78 135 c-43 75 -127 219 -185 321 -59 102 -149 257 -200
345 -51 88 -104 180 -118 205 -14 25 -32 57 -41 72 -9 14 -30 51 -48 81 -18
30 -47 65 -64 78 -138 98 -327 10 -337 -156 -4 -73 0 -83 130 -305 20 -34 378
-655 424 -736 l24 -40 -375 0 -375 1 -14 25 c-7 14 -46 81 -86 150 -40 68 -81
140 -92 158 -34 61 -164 285 -217 374 -28 48 -51 89 -51 92 0 3 -16 30 -35 60
-19 30 -35 57 -35 59 0 3 -18 35 -40 71 -22 36 -40 70 -40 75 0 4 106 192 236
417 481 832 476 824 624 1083 63 110 118 201 122 201 4 0 31 -42 61 -92z
m-1048 -750 c2 -2 -22 -46 -53 -98 -31 -53 -68 -116 -81 -140 -13 -25 -28 -51
-34 -58 -5 -7 -19 -30 -31 -51 -11 -21 -54 -97 -95 -168 l-74 -129 -616 0
-616 1 -42 70 c-23 39 -49 84 -58 100 -9 17 -20 37 -25 45 -6 8 -63 107 -129
220 l-118 205 51 5 c53 5 1916 3 1921 -2z m-2180 -494 c214 -370 205 -353 205
-364 0 -5 -63 -117 -140 -250 -77 -133 -140 -244 -140 -247 0 -3 -8 -17 -19
-31 -10 -15 -29 -47 -43 -72 -14 -25 -49 -85 -78 -135 -29 -49 -64 -110 -78
-135 -33 -60 -105 -184 -110 -190 -2 -3 -172 -5 -377 -6 l-374 -1 11 21 c12
23 368 640 601 1041 83 143 160 278 172 300 12 22 58 101 102 175 43 75 82
143 86 153 3 9 10 17 14 17 5 0 80 -124 168 -276z m1543 -614 c-11 -19 -32
-55 -46 -79 -14 -25 -38 -68 -55 -95 -16 -28 -41 -71 -55 -96 -27 -49 -51 -92
-67 -118 -5 -9 -34 -59 -64 -110 -29 -51 -57 -92 -63 -90 -5 2 -81 127 -167
278 -87 151 -168 291 -180 311 l-21 36 370 -1 370 0 -22 -36z m-878 -540 c5
-8 35 -60 66 -115 32 -55 66 -114 76 -131 l18 -30 -370 0 -369 0 18 30 c16 26
160 275 223 386 73 127 102 178 115 198 14 23 18 19 114 -150 55 -95 104 -180
109 -188z m1354 215 c32 -55 68 -116 78 -135 11 -19 42 -72 69 -118 27 -45 49
-85 49 -88 0 -3 8 -18 18 -32 10 -15 30 -48 45 -73 l26 -45 -369 0 -369 -1 11
21 c27 51 341 592 351 604 7 9 12 7 22 -10 6 -13 38 -68 69 -123z m-3413
-1358 c140 -242 266 -461 281 -486 15 -25 37 -64 49 -86 12 -22 69 -121 127
-220 58 -99 116 -200 130 -225 14 -25 105 -183 202 -351 98 -168 196 -339 219
-381 49 -89 81 -124 136 -149 38 -18 101 -19 1362 -19 l1321 0 84 -145 c45
-80 88 -153 93 -163 6 -9 49 -85 98 -168 48 -83 87 -153 87 -155 0 -6 -3448
-5 -3452 1 -5 6 -77 131 -110 190 -14 25 -123 214 -243 420 -119 206 -227 393
-240 415 -20 36 -240 417 -487 845 -53 91 -105 182 -117 203 -40 70 -58 102
-138 237 -43 75 -82 142 -86 150 -4 8 -15 29 -26 45 -10 17 -45 77 -78 135
-33 58 -90 156 -126 219 -37 62 -65 116 -62 120 2 4 166 7 363 7 l360 0 253
-439z m991 433 c4 -4 432 -745 486 -840 11 -19 43 -75 71 -123 28 -49 51 -93
51 -98 0 -5 -11 -27 -25 -49 -14 -22 -25 -41 -25 -44 0 -2 -18 -35 -40 -72
-23 -38 -45 -76 -50 -84 -4 -8 -57 -99 -116 -202 -59 -104 -111 -188 -114
-188 -4 0 -13 12 -21 28 -8 15 -30 54 -50 87 -20 33 -141 242 -270 465 -128
223 -313 545 -412 715 -220 379 -227 392 -227 403 0 9 735 11 742 2z m1199
-44 c-16 -28 -37 -65 -48 -83 -117 -202 -219 -379 -221 -386 -2 -4 -19 -33
-37 -63 l-33 -55 -35 58 c-19 32 -97 166 -172 298 -76 132 -144 249 -151 261
l-14 20 370 0 369 0 -28 -50z m1499 45 c0 -14 -25 -61 -32 -61 -5 0 -8 -4 -8
-9 0 -5 -27 -55 -60 -111 -33 -56 -60 -103 -60 -105 0 -1 -37 -65 -82 -141
-44 -77 -88 -151 -95 -166 -8 -15 -17 -29 -21 -32 -4 -2 -74 113 -157 257 -82
143 -162 281 -177 306 -15 25 -27 51 -28 57 0 7 114 10 360 11 198 0 360 -3
360 -6z m1221 -45 c-35 -62 -40 -70 -171 -297 -58 -100 -116 -200 -129 -223
-13 -22 -48 -84 -79 -136 -30 -52 -72 -124 -91 -158 -20 -35 -40 -71 -46 -81
-14 -22 -98 -168 -123 -211 -10 -19 -44 -78 -75 -130 -30 -52 -65 -114 -78
-136 -134 -234 -164 -284 -170 -284 -4 0 -14 15 -24 33 -9 17 -22 41 -28 52
-62 104 -84 142 -90 155 -4 8 -17 31 -28 50 -77 127 -199 343 -199 351 0 5 11
27 25 49 14 22 25 41 25 44 0 3 30 55 90 156 7 13 85 147 245 424 17 29 68
118 115 199 47 81 91 157 97 170 l12 24 375 -1 375 0 -28 -50z m1249 43 c0 -3
-62 -114 -138 -245 -77 -132 -183 -315 -237 -409 -54 -93 -137 -237 -185 -320
-47 -82 -140 -242 -205 -355 -65 -113 -161 -279 -213 -370 -248 -430 -316
-547 -332 -575 -29 -51 -283 -490 -285 -493 -2 -2 -40 63 -86 143 -46 80 -91
158 -100 173 -9 15 -27 47 -41 72 -39 70 -87 153 -98 170 -41 64 -42 69 -20
113 11 23 31 59 43 79 12 20 75 128 140 240 64 112 124 214 132 228 8 14 69
120 135 235 66 116 124 217 130 225 9 14 34 58 95 165 16 28 48 83 72 123 24
41 43 75 43 77 0 1 24 42 53 91 29 49 67 114 84 144 17 30 79 138 138 240 59
102 117 201 127 221 l20 35 364 0 c200 0 364 -3 364 -7z m-3460 -396 c57 -98
111 -191 120 -208 9 -16 51 -88 92 -160 42 -71 84 -144 94 -162 28 -48 187
-325 200 -348 6 -11 26 -45 44 -75 18 -30 45 -77 61 -105 15 -27 81 -142 147
-255 65 -113 118 -206 117 -208 -2 -2 -1796 -4 -1942 -2 l-32 0 106 183 c107
185 115 198 182 315 21 37 64 112 96 167 32 55 66 114 75 130 19 33 156 271
379 658 79 136 147 247 151 247 4 0 54 -80 110 -177z"/>
</g>
</svg>
